<?xml version="1.0" encoding="UTF-8" standalone="no"?>
<svg
   xmlns:dc="http://purl.org/dc/elements/1.1/"
   xmlns:cc="http://creativecommons.org/ns#"
   xmlns:rdf="http://www.w3.org/1999/02/22-rdf-syntax-ns#"
   xmlns:svg="http://www.w3.org/2000/svg"
   xmlns="http://www.w3.org/2000/svg"
   xmlns:sodipodi="http://sodipodi.sourceforge.net/DTD/sodipodi-0.dtd"
   xmlns:inkscape="http://www.inkscape.org/namespaces/inkscape"
   id="svg2168"
   viewBox="0 0 292.79 242.95"
   version="1.0"
   sodipodi:docname="logowhite.svg"
   inkscape:version="1.0.2 (e86c870879, 2021-01-15)">
  <defs
     id="defs9" />
  <sodipodi:namedview
     pagecolor="#ffffff"
     bordercolor="#666666"
     borderopacity="1"
     objecttolerance="10"
     gridtolerance="10"
     guidetolerance="10"
     inkscape:pageopacity="0"
     inkscape:pageshadow="2"
     inkscape:window-width="2048"
     inkscape:window-height="1120"
     id="namedview7"
     showgrid="false"
     inkscape:zoom="3.0994032"
     inkscape:cx="146.395"
     inkscape:cy="121.475"
     inkscape:window-x="0"
     inkscape:window-y="0"
     inkscape:window-maximized="1"
     inkscape:current-layer="layer1" />
  <g
     id="layer1"
     transform="translate(-21.143 -183.79)">
    <path
       id="path2186"
       d="m229.34 423.04c-0.62-2.06-1.21-4.2-1.32-4.75-0.2-1.07-6.29-13.21-7.61-15.17-0.43-0.64-2.02-1.48-3.53-1.86l-2.74-0.69v8.11c0 5.99-0.34 8.11-1.3 8.11-1.32 0-2.63-3.02-4.77-11-0.66-2.47-1.4-3.94-1.65-3.25-0.95 2.66-3.07 1.05-4.28-3.25-0.69-2.47-1.85-4.5-2.56-4.5-0.75 0-1.45-1.4-1.62-3.25-0.31-3.13-0.46-3.24-4.32-2.94-3.64 0.28-17.65 4.07-23.3 6.29-1.44 0.57-3.02 0.53-4.17-0.09-1.03-0.54-4.71-0.96-8.2-0.92-21.21 0.25-24.25-0.02-26.02-2.36-1.2-1.59-2.79-2.25-5.5-2.31-2.09-0.04-5.7-1.05-8.02-2.25-2.31-1.19-5.35-2.17-6.75-2.17-1.39 0-2.54-0.45-2.54-1s-0.69-1-1.54-1-2.4-0.79-3.45-1.75-4.443-3.1-7.536-4.75c-5.498-2.93-5.656-2.96-7.048-1.06-0.783 1.07-1.427 2.87-1.433 4-0.014 3.23-5.603 12.16-9.444 15.09-1.917 1.47-4.039 4.19-4.715 6.06-2.03 5.62-7.571 5.86-6.457 0.29 0.773-3.86-1.7-3.8-6.336 0.16-3.882 3.32-5.038 3.65-5.038 1.46 0-1.99-0.848-1.89-4.863 0.56-1.849 1.13-3.591 1.82-3.87 1.54-0.812-0.81-0.627-9.92 0.242-11.96 0.436-1.03 1.86-3.05 3.163-4.5 4.823-5.37 21.328-29.22 21.328-30.83 0-0.48 0.9-1.52 2-2.31 2.031-1.46 2.734-4 1.108-4-0.49 0-1.576-1.71-2.414-3.81-0.838-2.09-2.237-4.39-3.109-5.12-0.872-0.72-1.585-1.92-1.585-2.67s-0.724-3.17-1.609-5.38l-1.608-4.02h-9.56c-5.258 0-12.5 0.51-16.095 1.14-4.765 0.83-6.636 0.84-6.905 0.03-0.203-0.61-1.947-1.4-3.876-1.76-5.741-1.08-5.479-5.35 0.331-5.39 1.199-0.01 2.854-0.69 3.679-1.52 0.825-0.82 2.657-1.5 4.071-1.5 1.826 0 2.572-0.53 2.572-1.83 0-1.79-2.374-3.45-6.631-4.64-1.324-0.36-2.348-1.67-2.704-3.46-0.316-1.57-1.157-2.84-1.869-2.81-4.977 0.21-6.796-0.37-6.796-2.15 0-2.66 3.139-3.24 20-3.69 22.141-0.58 21.284-0.24 22.528-9.04 0.379-2.68 1.409-6 2.288-7.38 0.88-1.37 1.471-3.54 1.313-4.8-0.158-1.27 0.461-3.45 1.375-4.85 0.914-1.39 1.878-3.73 2.143-5.19s1.016-3.63 1.668-4.83c0.651-1.19 2.293-4.26 3.647-6.82 1.353-2.56 4.822-7.37 7.708-10.71 2.886-3.33 6.278-7.57 7.538-9.43 1.261-1.85 3.079-3.63 4.042-3.94 0.962-0.31 1.75-0.98 1.75-1.5 0-0.51 1.125-0.93 2.5-0.93 1.377 0 2.447-0.34 2.377-0.75-0.42-2.72 0.35-4.25 2.16-4.25 1.11 0 4.28-1.14 7.03-2.53 7.91-4.01 19.03-7.75 23.93-8.04 2.48-0.15 8.33-1 13-1.9 5.15-0.99 10.33-1.39 13.15-1 4.71 0.64 5.77 0.08 6.67-3.53 0.42-1.66 1.99-15.36 2.13-18.5 0.04-1.1 0.49-2.65 0.99-3.43 0.74-1.17 1.19-1.21 2.44-0.17 1.26 1.05 1.92 0.91 3.76-0.82 3.11-2.89 4.4-2.6 4.68 1.06 0.13 1.73 0.49 3.55 0.8 4.05 0.8 1.3 3.38-1.09 3.38-3.14 0-1.57 3.87-6.05 5.23-6.05 0.33 0 0.51 4.05 0.41 9-0.12 5.74 0.2 9 0.87 9 1.53 0 4.48 11.02 3.82 14.25-0.34 1.69-0.13 2.75 0.56 2.75 0.61 0 1.11 1.13 1.11 2.5 0 1.96 0.51 2.5 2.35 2.5 7.83 0 23.15 8.87 23.15 13.4 0 1.51 0.57 2.04 2 1.88 2.48-0.27 7.5 1.64 7.5 2.87 0 0.49 1.13 1.33 2.5 1.85 1.38 0.52 2.5 1.57 2.5 2.32s1.13 2.68 2.5 4.28c1.38 1.59 2.5 3.44 2.5 4.11 0 0.66 1.79 3.08 3.97 5.38 3.9 4.1 4.77 5.96 8.84 18.91 2.26 7.2 4.38 22.57 3.55 25.75-0.5 1.9 0.03 2.08 7.8 2.62 13.08 0.92 18.22 1.73 19.84 3.13 0.99 0.86 5.54 1.42 13.29 1.66 9.08 0.28 13.02 1.53 14.08 2.38-4.44 2.09-1.42 0.52-7.12 3.77-5.07 0.96-9.81 1.46-18.75 1.07-6.6-0.28-16.13-0.22-21.18 0.14-8.8 0.63-9.22 0.77-10.11 3.32-0.51 1.46-2.33 4.87-4.04 7.56-1.71 2.7-3.62 6.53-4.24 8.5-2.1 6.72-5.26 12.59-8.49 15.79-1.77 1.76-3.83 4.58-4.58 6.26-0.74 1.69-2.06 3.3-2.93 3.57-0.87 0.28-2.52 1.39-3.68 2.46-1.74 1.63-1.96 2.52-1.24 5.24 0.47 1.81 1.35 6.88 1.96 11.28s1.61 10.48 2.23 13.5c1.42 6.94 1.83 15.72 1.12 23.75-0.63 7.19-2.4 8.26-4.12 2.5zm-70.2-47.25c0-0.55 1.38-1 3.05-1 1.68 0 4.31-0.65 5.85-1.45 1.54-0.79 3.75-1.19 4.92-0.89 2.36 0.62 16.33-3.31 17.3-4.86 0.35-0.55 0.21-2.86-0.3-5.13-0.63-2.8-0.59-4.24 0.13-4.48 1.87-0.63 1.15-4.35-0.95-4.9-1.1-0.29-2-0.81-2-1.16-0.01-0.34-0.48-3.51-1.05-7.04-1.75-10.8-3.08-20.5-3.07-22.43 0.01-1.61-0.56-1.75-4.7-1.18-4.23 0.58-13.73 0.72-34.68 0.52-8.35-0.08-17.5 0.94-17.5 1.96 0 0.39-1.11 1.23-2.47 1.85-1.38 0.63-2.78 2.35-3.17 3.9-0.38 1.53-1.95 4.04-3.48 5.57-1.54 1.53-2.57 3.35-2.31 4.04 0.27 0.69-0.32 2.15-1.29 3.24-2.82 3.16-8.28 11.18-8.28 12.17 0 1.09 5.52 5.27 6.96 5.27 0.57 0 1.04 0.44 1.04 0.98 0 1.59 9.45 5.92 16.46 7.55 3.56 0.82 7.95 2.36 9.76 3.41 1.81 1.04 4.86 2.03 6.78 2.18 1.93 0.15 3.95 0.59 4.5 0.98 0.92 0.65 4.1 1.42 7.25 1.76 0.69 0.08 1.25-0.31 1.25-0.86zm68.06-35.9c1.73-1.74 2.94-4 2.94-5.52 0-1.42 0.42-2.58 0.92-2.58s1.42-2.33 2.03-5.18 1.6-5.78 2.2-6.5c0.9-1.08-0.85-1.32-9.56-1.32-12.54 0-13.1 0.49-9.61 8.36 1.25 2.83 2.25 6.04 2.22 7.14s0.42 4.57 1 7.72l1.06 5.72 1.93-2.45c1.06-1.35 3.25-3.77 4.87-5.39zm-138.86-11.85c3.156-3.67 3.074-4.25-0.609-4.25-3.317 0-3.478 0.15-2.623 2.4 0.501 1.32 0.64 2.67 0.308 3-0.331 0.33-0.147 0.6 0.409 0.6 0.557 0 1.688-0.79 2.515-1.75zm78.804-25.74c10.73-0.14 11.49-0.27 11.29-2.08-0.12-1.06-0.45-5.98-0.73-10.93-0.66-11.73-1.07-14.81-2.29-16.98-0.6-1.08-0.67-3.22-0.17-5.4 0.92-4.01 0.5-18.61-0.62-21.39-0.91-2.28-2.72-0.9-6.26 4.76-1.38 2.2-3.51 5.02-4.72 6.26-2.27 2.3-5.42 8.15-7.61 14.12-0.67 1.85-3.85 6.58-7.06 10.5-3.27 3.99-5.6 7.75-5.31 8.53 0.29 0.76-0.11 2.11-0.89 3-1.4 1.58-5.63 8.77-5.63 9.57 0 0.79 8.52 1.23 13.5 0.71 2.75-0.29 10.18-0.59 16.5-0.67zm72.91-0.14c0.83-0.71 0.24-9.66-0.67-10.26-1.59-1.04-2.05-6.02-0.66-7.17 1.48-1.23 0.06-3.28-7.73-11.13-2.57-2.58-4.95-6.02-5.31-7.64-0.36-1.63-1.52-3.75-2.59-4.72s-1.95-2.74-1.95-3.93c0-1.87-0.44-2.11-3.13-1.71-2.68 0.39-3.76-0.18-7.38-3.93-4.65-4.81-7.07-6.88-8.04-6.88-0.35 0-1.79-0.91-3.21-2.03-3.46-2.72-4.88-1.18-2.92 3.18 0.88 1.97 1.76 8.08 2.13 14.85 0.64 11.83 2.19 20.5 4.91 27.5 0.86 2.2 1.58 5.58 1.61 7.5 0.09 5.08 1.14 6.1 7.15 6.93 4.99 0.68 26.87 0.25 27.79-0.56zm-130.67-2.83c0.59-1.06 2.81-3.8 4.92-6.1 2.11-2.29 3.84-4.68 3.84-5.3 0-0.63 0.45-1.14 1-1.14s1-0.57 1-1.28c0-0.7 1.45-2.84 3.22-4.75 1.78-1.91 4.22-5.59 5.44-8.18s4.06-7.43 6.32-10.76c2.26-3.32 3.98-6.6 3.82-7.29-0.28-1.23 4.01-7.62 7.4-11.02 0.98-0.98 2.48-3.13 3.34-4.78l1.55-3.01-4.79 0.61c-2.64 0.34-7.5 1.29-10.8 2.11s-7.35 1.71-9 1.97c-7.41 1.2-6.93 0.94-15 8.25-1.65 1.5-3.79 3.03-4.75 3.4s-1.75 1.36-1.75 2.2c0 0.86-0.87 1.53-2 1.53-1.1 0-2 0.64-2 1.42s-1.659 3.27-3.691 5.53c-2.031 2.26-3.836 5.05-4.011 6.2-0.175 1.14-0.973 3.27-1.775 4.72-3.319 6-4.689 11.09-5.155 19.15l-0.492 8.52 11.143-0.04c9.941-0.03 11.261-0.24 12.221-1.96z"
       style="fill:#fe0300;fill-opacity:1" />
  </g>
  <metadata
     id="metadata4">
    <rdf:RDF>
      <cc:Work>
        <dc:format>image/svg+xml</dc:format>
        <dc:type
           rdf:resource="http://purl.org/dc/dcmitype/StillImage" />
        <cc:license
           rdf:resource="http://creativecommons.org/licenses/publicdomain/" />
        <dc:publisher>
          <cc:Agent
             rdf:about="http://openclipart.org/">
            <dc:title>Openclipart</dc:title>
          </cc:Agent>
        </dc:publisher>
        <dc:title>Aranchy</dc:title>
        <dc:date>2007-10-02T13:36:47</dc:date>
        <dc:description>anarchy, anarchy, clip art, clipart, image, media, public domain, sign, sign, svg, symbol, symbol, </dc:description>
        <dc:source>http://openclipart.org/detail/6583/aranchy-by-steren</dc:source>
        <dc:creator>
          <cc:Agent>
            <dc:title>Steren</dc:title>
          </cc:Agent>
        </dc:creator>
        <dc:subject>
          <rdf:Bag>
            <rdf:li>anarchy</rdf:li>
            <rdf:li>clip art</rdf:li>
            <rdf:li>clipart</rdf:li>
            <rdf:li>image</rdf:li>
            <rdf:li>media</rdf:li>
            <rdf:li>public domain</rdf:li>
            <rdf:li>sign</rdf:li>
            <rdf:li>svg</rdf:li>
            <rdf:li>symbol</rdf:li>
          </rdf:Bag>
        </dc:subject>
      </cc:Work>
      <cc:License
         rdf:about="http://creativecommons.org/licenses/publicdomain/">
        <cc:permits
           rdf:resource="http://creativecommons.org/ns#Reproduction" />
        <cc:permits
           rdf:resource="http://creativecommons.org/ns#Distribution" />
        <cc:permits
           rdf:resource="http://creativecommons.org/ns#DerivativeWorks" />
      </cc:License>
    </rdf:RDF>
  </metadata>
</svg>
